<?xml version="1.0" standalone="no"?>
<!DOCTYPE svg PUBLIC "-//W3C//DTD SVG 20010904//EN"
 "http://www.w3.org/TR/2001/REC-SVG-20010904/DTD/svg10.dtd">
<svg version="1.0" xmlns="http://www.w3.org/2000/svg"
 width="48.000000pt" height="48.000000pt" viewBox="0 0 120.000000 120.000000"
 preserveAspectRatio="xMidYMid meet">

<g transform="translate(0.000000,120.000000) scale(0.100000,-0.100000)"
fill="#ffffff" stroke="none">
<path d="M485 1180 c-211 -45 -376 -193 -447 -400 -30 -87 -32 -267 -4 -350
65 -192 204 -331 396 -396 77 -26 263 -26 340 0 192 65 331 204 396 396 26 77
26 263 0 340 -32 96 -79 173 -146 241 -115 116 -234 169 -395 175 -55 2 -118
-1 -140 -6z m180 -9 c78 -12 145 -30 145 -40 0 -18 -86 -31 -210 -31 -124 0
-210 13 -210 31 0 10 65 28 135 39 70 11 73 11 140 1z m71 -89 c25 -16 103
-136 96 -147 -4 -6 -27 -39 -51 -73 l-44 -62 -137 0 -136 0 -52 74 -51 73 47
64 c25 35 51 67 57 71 5 4 66 8 135 8 69 0 130 -4 136 -8z m-566 -155 c0 -18
-20 -93 -44 -168 -60 -188 -116 -260 -102 -130 14 125 43 211 99 293 35 52 47
53 47 5z m945 -72 c33 -71 49 -128 60 -221 8 -63 -5 -76 -35 -34 -33 47 -100
256 -100 314 0 49 0 49 21 30 11 -10 35 -50 54 -89z m-744 52 c8 -12 30 -43
48 -69 l33 -46 -43 -130 -42 -129 -84 -27 c-96 -31 -79 -39 -150 63 l-37 53
44 131 45 131 65 22 c82 28 101 29 121 1z m570 2 c35 -12 68 -25 73 -30 10 -9
86 -236 86 -256 0 -18 -92 -143 -104 -142 -6 0 -45 12 -86 27 l-75 27 -42 129
c-24 73 -39 134 -34 140 4 6 27 37 50 69 23 31 47 57 54 57 7 0 42 -10 78 -21z
m-453 -477 l103 -74 -3 -91 -3 -92 -81 -24 -81 -23 -112 82 -112 82 3 86 3 85
80 27 c44 15 85 25 90 22 6 -3 56 -39 113 -80z m505 29 c4 -4 7 -45 5 -91 l-3
-83 -109 -80 -110 -79 -80 25 -81 25 -3 89 -3 90 111 80 112 80 76 -24 c43
-13 81 -28 85 -32z m-833 -176 c80 -28 300 -200 300 -234 0 -14 -37 -2 -118
36 -73 34 -193 138 -221 191 -14 26 -15 26 39 7z m919 -7 c-28 -53 -148 -157
-221 -191 -80 -38 -118 -50 -118 -37 0 42 275 245 338 249 10 1 10 -4 1 -21z"/>
</g>
</svg>
